<?xml version="1.0" standalone="no"?><!DOCTYPE svg PUBLIC "-//W3C//DTD SVG 1.1//EN" "http://www.w3.org/Graphics/SVG/1.1/DTD/svg11.dtd"><svg t="1556257554449" class="icon" style="" viewBox="0 0 1024 1024" version="1.1" xmlns="http://www.w3.org/2000/svg" p-id="2318" xmlns:xlink="http://www.w3.org/1999/xlink" width="200" height="200"><defs><style type="text/css"></style></defs><path d="M556.8 117.8c3.1-6.4 11.4-8.2 16.6-3.3 13.3 12.5 37.9 52.8 57.2 61.7 31 14.3 463.7 271.1 189.5 623.5-1.7 2.2-3.5 4.5-5.1 6.8-12.5 17.1-107.8 134-355.8 95.1-267.4-42-339.9-223-341.7-260.2 0 0-68.3-309.3 273.4-428l95.4-32.4c29.7-10.1 54.5-31.4 68.6-59.4 0.7-1.3 1.3-2.5 1.9-3.8z" fill="#A0370F" p-id="2319"></path><path d="M152.7 559.3S117.9 561 112 583c-9.3 34.4 5.5 58.4 5.5 58.4 1.8 37.2 74.3 218.2 341.7 260.2 248 38.9 343.3-78 355.8-95.1 1.6-2.3 3.4-4.6 5.1-6.8 26.8-34.4 55.9-70.7 61.2-100.5C888.1 661 817 695 817 695c-110 71-217.3 58.1-281.8 38.8-31.2-9.4-60-25.4-84.8-46.5C330.8 585.4 183 559 152.7 559.3" fill="#BD8844" p-id="2320"></path><path d="M555.5 919.5c-31.2 0-63.9-2.7-97.8-8-62.8-9.8-119.6-28.1-169.1-54.2-41.2-21.7-77.2-48.9-107.1-80.8-51.2-54.5-72.3-110.5-73.9-133.8-1.9-9.1-16-84 8.8-173.5 15.3-55 42.3-104 80.2-145.6 47.2-51.8 111.4-92 191-119.7l95.5-32.4c27.6-9.4 49.9-28.7 62.9-54.4 0.6-1.3 1.2-2.5 1.8-3.6 2.8-6 8.4-10.2 14.8-11.5 6.4-1.2 12.9 0.7 17.7 5.2 5.2 4.9 11.3 12.8 18.4 21.9 10.9 14 25.8 33.2 36.2 38 14.5 6.7 71.9 41.3 129.1 93.8 34.6 31.8 64.1 65.3 87.7 99.6 29.2 42.4 49.4 86.1 60 130 25.6 105.1-2.6 211.2-83.6 315.3-1.6 2.1-3.3 4.3-5 6.5-7.2 9.9-35.4 44.4-93.4 71.7-33 15.5-70.3 26.1-110.7 31.4-20.3 2.8-41.5 4.1-63.5 4.1z m10.9-797.8s-0.1 0 0 0c-0.4 0.1-0.5 0.3-0.5 0.4-0.6 1.3-1.3 2.7-2 4.1-15.4 30.5-41.8 53.3-74.4 64.4L394.1 223c-76.3 26.5-137.8 64.9-182.7 114.2-35.8 39.3-61.3 85.5-75.7 137.5-24.7 88.7-8.6 163.9-8.4 164.7l0.2 0.8v0.8c1.5 31.1 69.3 209.4 333.3 250.8 56 8.8 108.4 10.1 155.7 3.9 38.4-5 73.6-15 104.8-29.6 53.7-25.2 79.2-56.4 85.8-65.4 1.8-2.4 3.6-4.8 5.3-7 77.1-99.1 104-199.5 79.9-298.3-10.1-41.5-29.3-83-57.1-123.4-22.8-33.1-51.3-65.4-84.7-96.2-60-55.1-115.5-86.5-124-90.4-14.8-6.8-30.1-26.5-43.6-43.9-6.3-8.1-12.3-15.8-16.3-19.6-0.1-0.2-0.1-0.2-0.2-0.2z" p-id="2321"></path><path d="M614.7 242.4c6 1.5 11.8 3.6 17.5 5.9 5.7 2.3 11.3 4.8 16.8 7.6 11 5.5 21.7 11.6 32 18.3l7.7 5.1c2.5 1.7 5 3.6 7.5 5.4 5 3.6 9.9 7.4 14.6 11.3 1.2 1 2.4 1.9 3.6 2.9l3.5 3c2.3 2 4.7 4 7 6.1s4.5 4.2 6.8 6.2l6.7 6.4c2.2 2.1 4.3 4.4 6.5 6.6 2.1 2.2 4.3 4.4 6.4 6.7l6.2 6.8c2.1 2.3 4.1 4.6 6 7 4 4.7 7.8 9.5 11.6 14.3 3.7 4.9 7.4 9.8 10.9 14.9s6.9 10.1 10.1 15.4c1.6 2.6 3.3 5.2 4.8 7.9l4.5 8 2.2 4c0.7 1.4 1.4 2.7 2.1 4.1 1.4 2.7 2.8 5.5 4.1 8.2 1.4 2.7 2.5 5.6 3.8 8.4 1.2 2.8 2.4 5.6 3.5 8.5-4.2-4.5-8-9.2-12-13.9-2-2.3-3.9-4.6-5.9-6.9l-2.9-3.5-3-3.4-5.9-6.9-5.9-6.8c-2-2.2-3.9-4.6-5.9-6.8-2-2.2-4-4.4-6-6.7-1.9-2.3-4-4.4-6-6.6s-4-4.5-6-6.6c-4.1-4.3-8-8.8-12.2-13-2.1-2.1-4.1-4.3-6.1-6.5l-6.2-6.4c-2-2.2-4.2-4.2-6.3-6.3l-6.3-6.3-6.4-6.2c-2.2-2-4.3-4.1-6.5-6.1-2.1-2.1-4.3-4.1-6.5-6.1l-3.3-3-3.3-3c-4.4-4-8.9-7.9-13.3-11.9l-13.5-11.7c-9.1-7.7-18.4-15.2-27.9-22.6-9.5-7.5-19.1-14.7-29.1-21.8z" fill="#A04D0F" p-id="2322"></path><path d="M391.4 421.4m-40.7 0a40.7 40.7 0 1 0 81.4 0 40.7 40.7 0 1 0-81.4 0Z" p-id="2323"></path><path d="M600.4 472.1c-3.3 0-6.6-1.6-8.5-4.7-3-4.7-1.6-10.8 3.1-13.8l50.7-32.1c4.7-3 10.8-1.6 13.8 3.1s1.6 10.8-3.1 13.8l-50.7 32.1c-1.6 1.1-3.5 1.6-5.3 1.6z" p-id="2324"></path><path d="M653.6 502.3c-1.6 0-3.2-0.4-4.6-1.1l-53.1-27.9c-4.9-2.6-6.8-8.6-4.2-13.5s8.6-6.8 13.5-4.2l53.1 27.9c4.9 2.6 6.8 8.6 4.2 13.5-1.8 3.4-5.3 5.3-8.9 5.3z" p-id="2325"></path><path d="M485.6 709.6c-3.7 0-7.6-0.3-11.7-1-10.9-1.9-19.7-9.3-23-19.4-1.9-5.9-2.8-15.1 4-25.5 1.3-1.9 2.8-3.8 4.4-5.5-1.4-0.8-2.8-1.7-4.3-2.7-12.1-8.4-17.9-22-15.2-35.7 2.7-13.2 12.6-23.2 25.9-26 17.8-3.7 36.4 8.9 38.5 10.3 4.5 3.2 5.6 9.4 2.5 13.9-3.2 4.5-9.4 5.6-13.9 2.5-3.4-2.4-15-8.8-23-7.1-5.4 1.1-9.3 5-10.4 10.3-1.2 5.8 1.4 11.5 6.9 15.2 8.4 5.8 12.2 5.4 21.2 4.5l2.7-0.3c4-0.7 8.3-1.1 10.9-0.1 4.4 1.7 7 6.2 6.3 10.8-0.2 1.3-1.5 7.5-9.3 8.6-0.8 0.1-1.8 0.2-3 0.3-0.7 0.1-1.5 0.1-2.2 0.2-6.2 1.2-16.8 4.5-21.6 11.7-2.6 4-2.3 6.5-1.7 8.3 1 3 3.9 5.3 7.4 5.9 6.5 1.1 15.6 1.6 22.5-2.7 4.7-2.9 10.9-1.5 13.8 3.2s1.5 10.9-3.2 13.8c-6.7 4.3-15.1 6.5-24.5 6.5z m10-66.9z" p-id="2326"></path></svg>